PathFileType	4	(X/Y/Z)	walk-thru1-5-TP.trc
DataRate	CameraRate	NumFrames	NumMarkers	Units	OrigDataRate	OrigDataStartFrame	OrigNumFrames
120.00	120.00	       5	60	mm	120.00	391	       521
Frame#	Time	Top.Head			Front.Head			Rear.Head			Jaw			C7			R.Clavicle			L.Clavicle			R.Shoulder			L.Shoulder			R.Scapula			L.Scapula			R.Scap.Inf			R.Biceps.Lateral			R.Elbow			R.Elbow.Medial			R.Forearm			R.Ulna			R.Radius			R.Wrist			R.Thumb.M1			R.Thumb.M2			R.Thumb.M3			R.Finger3.M1			R.Finger3.M2			R.Finger3.M3			L.Biceps.Lateral			L.Elbow			L.Elbow.Medial			L.Forearm			L.Ulna			L.Radius			L.Wrist			L.Thumb.M1			L.Thumb.M2			L.Thumb.M3			L.Finger3.M1			L.Finger3.M2			L.Finger3.M3			V.Sacral			R.ASIS			L.ASIS			R.Thigh			R.Thigh.Front			R.Knee			R.Knee.Medial			R.Shank			R.Ankle			R.Ankle.Medial			R.Heel			R.Toe			R.MedFoot			L.Thigh			L.Knee			L.Knee.Medial			L.Shank			L.Ankle			L.Ankle.Medial			L.Heel			L.Toe			L.MedFoot			V_mid_ASIS			V_R_Knee_JC			V_L_Knee_JC			V_R_Elbow_JC			V_L_Elbow_JC			V_R_Ankle_JC			V_L_Ankle_JC			V_R_Wrist_JC			V_L_Wrist_JC			V_R_ScaTrpz_1stMC_JC			V_R_1stMC_1stPP_JC			V_R_1stPP_1stDP_JC			V_R_LunCap_3rdMC_JC			V_R_3rdMC_3rdPP_JC			V_R_3rdPP_3rdMP_JC			V_R_3rdMP_3rdDP_JC			V_L_ScaTrpz_1stMC_JC			V_L_1stMC_1stPP_JC			V_L_1stPP_1stDP_JC			V_L_LunCap_3rdMC_JC			V_L_3rdMC_3rdPP_JC			V_L_3rdPP_3rdMP_JC			V_L_3rdMP_3rdPP_JC			V_ROOT_JC			V_R_Hip_JC			V_L_Hip_JC			V_R_GlenHum_JC			V_L_GlenHum_JC			V_ForeHead_Ctr			V_Vertex			V_Sagit_Lambdoid_Suture			V_R_FrontoTemp			V_L_FrontoTemporal			V_R_ParietalOccip			V_L_ParietalOcciptal			V_R_Temporal			V_L_Temporal			V_mid_FrontRearHead			V_mid_RLGlenHumCtrs			V_C7_vert			V_C1_vert			V_Mid_Hip			
		X1	Y1	Z1	X2	Y2	Z2	X3	Y3	Z3	X4	Y4	Z4	X5	Y5	Z5	X6	Y6	Z6	X7	Y7	Z7	X8	Y8	Z8	X9	Y9	Z9	X10	Y10	Z10	X11	Y11	Z11	X12	Y12	Z12	X13	Y13	Z13	X14	Y14	Z14	X15	Y15	Z15	X16	Y16	Z16	X17	Y17	Z17	X18	Y18	Z18	X19	Y19	Z19	X20	Y20	Z20	X21	Y21	Z21	X22	Y22	Z22	X23	Y23	Z23	X24	Y24	Z24	X25	Y25	Z25	X26	Y26	Z26	X27	Y27	Z27	X28	Y28	Z28	X29	Y29	Z29	X30	Y30	Z30	X31	Y31	Z31	X32	Y32	Z32	X33	Y33	Z33	X34	Y34	Z34	X35	Y35	Z35	X36	Y36	Z36	X37	Y37	Z37	X38	Y38	Z38	X39	Y39	Z39	X40	Y40	Z40	X41	Y41	Z41	X42	Y42	Z42	X43	Y43	Z43	X44	Y44	Z44	X45	Y45	Z45	X46	Y46	Z46	X47	Y47	Z47	X48	Y48	Z48	X49	Y49	Z49	X50	Y50	Z50	X51	Y51	Z51	X52	Y52	Z52	X53	Y53	Z53	X54	Y54	Z54	X55	Y55	Z55	X56	Y56	Z56	X57	Y57	Z57	X58	Y58	Z58	X59	Y59	Z59	X60	Y60	Z60	

391	3.250	-571.30273	47.89547	1802.52417	-668.52222	42.33360	1687.83728	-442.64105	39.40814	1707.50366	-620.36975	43.22308	1523.03271	-427.17657	34.24350	1572.41272	-516.00433	155.48648	1474.02563	-539.07013	-69.76392	1477.66028	-468.13596	239.76170	1470.07141	-481.49020	-170.44899	1490.36218	-367.88342	119.32275	1489.05920	-380.60889	-52.29092	1492.16736	-316.98349	125.17133	1402.93213	-403.39590	295.28799	1298.59619	-354.73407	308.75015	1148.38293	-343.02200	216.48529	1132.46729	-440.68839	262.59430	1027.77222	-392.01343	303.89774	929.04419	-458.11340	247.64070	895.71490	-444.67383	285.53238	846.57501	-467.20419	242.71214	861.33368	-502.42825	216.48521	812.54089	-536.54980	218.77357	781.41632	-482.34119	293.78180	774.84436	-496.67203	254.52972	720.39954	-484.32861	209.01495	699.29388	-472.37024	-238.96559	1341.30444	-476.52814	-287.14471	1164.39014	-426.32147	-227.54324	1141.85144	-551.74512	-250.69388	1069.72339	-518.08026	-277.91473	973.86005	-585.03290	-215.86111	934.33203	-592.05707	-249.17662	877.38019	-601.54700	-198.97282	870.42523	-598.51947	-164.98637	820.53156	-612.31476	-169.29639	760.00647	-619.52783	-260.72263	805.58704	-611.97321	-243.39136	747.99951	-592.02209	-225.80760	701.64307	-321.65402	18.87936	1094.78662	-404.90784	214.55020	1037.60168	-430.10803	-159.59085	1034.36792	-570.32037	194.96133	651.79285	-666.52991	112.92359	589.54755	-613.98273	174.08203	530.37494	-610.05896	55.53344	525.75122	-575.02844	137.25908	349.74310	-407.32278	169.66609	133.11534	-453.36594	75.89246	141.44460	-349.02240	108.88029	124.83723	-564.22833	142.55156	59.25449	-517.75641	98.68880	93.89874	-462.40186	-127.56727	646.87140	-481.43307	-98.63589	500.19736	-484.41815	15.58300	504.38455	-472.03348	-39.88810	302.65936	-353.57474	-50.61096	66.43939	-390.67215	42.54461	107.09872	-302.72302	12.64341	55.17260	-540.55017	-15.99024	44.01826	-477.22375	18.01049	69.25297																																																																																																																															
392	3.258	-576.09790	47.94141	1802.61475	-675.34802	42.47578	1687.35303	-447.84039	40.22779	1706.54846	-626.18188	42.97847	1522.81580	-431.56049	35.54854	1571.99060	-520.56073	155.12772	1473.72839	-545.14520	-70.18427	1477.66772	-472.99002	239.94080	1469.80359	-487.01071	-170.14798	1489.73816	-372.63684	118.38573	1488.82043	-385.49185	-52.99897	1492.42932	-322.48883	124.85856	1403.28882	-408.34717	294.42117	1297.93311	-359.75177	309.24036	1148.53320	-346.79919	216.80975	1132.48022	-445.82529	262.84271	1027.57227	-398.29041	302.72418	929.05872	-465.11154	248.64854	895.39740	-450.11093	285.32346	847.20197	-472.78864	242.98399	860.42786	-507.60977	215.60121	812.95105	-542.13177	219.01024	781.16150	-487.07690	293.75778	774.58215	-501.82327	255.46983	721.15253	-490.22192	208.49292	699.45233	-478.15805	-238.97897	1341.09204	-482.42252	-287.35626	1165.33374	-432.13327	-228.39951	1141.35168	-558.05768	-248.28845	1069.92249	-524.61584	-278.06973	973.90082	-591.82202	-214.27089	934.48047	-598.87915	-247.82326	877.05511	-607.23364	-200.00742	870.22339	-605.78284	-164.02908	821.05524	-618.82990	-169.86774	760.96729	-626.59790	-260.12997	806.15558	-619.09564	-242.33022	747.98956	-599.68396	-226.87910	701.84027	-326.87872	18.17842	1094.78638	-412.88004	212.82486	1036.85864	-435.38235	-159.90047	1034.49377	-576.38214	194.18765	652.05670	-671.38281	110.98508	591.12415	-620.16882	172.72134	530.18286	-616.22656	54.75525	525.56384	-586.75940	136.83162	349.23837	-426.48917	169.17255	127.24846	-470.92203	76.60474	137.17044	-365.91632	107.69397	117.76498	-585.91205	141.18958	59.29638	-538.22870	99.01319	91.60545	-465.38223	-127.38361	646.50287	-483.03229	-99.02468	499.95093	-485.64539	15.86594	504.60831	-472.69135	-39.68333	302.03760	-353.74585	-50.60070	66.53220	-390.93872	41.83252	107.18513	-302.51743	12.81730	55.35749	-540.17615	-16.19057	43.83488	-477.22375	18.01049	69.25297																																																																																																																															
393	3.267	-582.36871	46.18746	1802.38940	-679.52936	41.48689	1687.56616	-453.12238	40.83720	1706.31653	-631.73389	41.85943	1522.55884	-436.86734	31.51723	1570.59033	-525.90552	155.72530	1473.56494	-550.03009	-70.14666	1477.44775	-478.52805	240.39780	1470.17456	-493.12207	-171.00322	1489.33362	-378.49493	117.66000	1488.93896	-390.73148	-53.08499	1492.21106	-328.89581	123.83041	1402.77075	-413.94153	294.74323	1297.55042	-366.11371	308.47974	1148.00330	-354.82147	217.73727	1133.08472	-448.75327	263.63376	1026.94849	-404.26392	303.75336	928.79974	-470.41208	248.31944	895.58179	-456.55688	285.90628	847.21545	-478.35678	242.73706	860.40216	-512.69263	215.92328	812.64215	-548.68451	218.96936	781.44952	-493.46155	293.46060	774.55396	-507.62350	255.10208	720.64465	-496.37469	207.66512	700.05188	-483.84601	-240.12387	1340.94116	-488.84515	-287.23404	1164.83521	-438.33374	-229.03851	1141.57117	-564.38696	-249.27345	1069.88501	-531.04791	-278.08081	973.85529	-598.21936	-214.59077	934.39417	-604.82758	-248.84666	876.70923	-614.85065	-198.44102	871.54297	-612.05157	-164.67221	821.10083	-626.35773	-168.49583	761.85931	-632.56317	-260.35257	806.07709	-626.40515	-242.30531	748.25110	-606.23773	-225.62949	702.13959	-332.47668	18.57526	1094.90747	-414.25015	213.26515	1036.34375	-440.48230	-159.87250	1034.14868	-582.03699	194.02525	652.40302	-676.40051	110.62783	591.69080	-626.74652	173.12363	530.58191	-621.21210	54.84736	526.04272	-597.87659	136.05280	348.46182	-445.69003	169.48163	120.96558	-489.77347	75.44254	133.22728	-386.27673	109.32968	109.29620	-607.35443	140.52711	58.97036	-557.78387	97.36966	89.73690	-468.03009	-127.33334	646.24268	-484.60849	-99.35102	500.13760	-486.23489	15.50030	504.36301	-473.69928	-39.64630	302.01361	-353.78741	-50.74512	66.46671	-391.28186	40.32939	107.28762	-302.52988	12.86857	55.39061	-540.17615	-16.19057	43.83488	-477.22375	18.01049	69.25297																																																																																																																															
394	3.275	-587.83600	45.61914	1802.50562	-684.63336	40.75962	1687.19250	-458.73129	40.04278	1706.37158	-636.83270	41.71333	1522.79688	-443.64606	35.28911	1571.20691	-530.90900	155.10149	1473.72144	-555.65747	-70.59518	1477.50330	-481.98309	239.49373	1470.21082	-498.69446	-171.66919	1489.78137	-384.04245	116.46819	1488.28589	-396.26923	-53.46847	1492.22876	-333.91592	123.02452	1402.85828	-420.04138	294.86899	1296.79883	-371.05811	308.70807	1147.19055	-358.00201	216.55441	1133.00281	-454.93970	262.83118	1026.84143	-410.04965	302.64212	928.24792	-476.70416	248.62265	894.87421	-462.20596	284.92062	846.95361	-483.61676	242.33092	859.90967	-519.08136	216.63489	812.33527	-552.39050	217.65807	780.70099	-499.68356	293.01578	774.38684	-513.52472	254.34392	721.15900	-502.29367	207.60384	699.85718	-490.05154	-239.77773	1340.95178	-495.07718	-287.50458	1164.77588	-444.70078	-229.65495	1141.47302	-569.58099	-250.45296	1069.90881	-537.96045	-277.85788	974.35791	-604.57776	-214.41679	935.13940	-612.28375	-247.21176	878.34039	-621.28101	-199.20097	871.92969	-618.36011	-163.97816	821.83917	-632.06342	-169.03378	761.67419	-640.40552	-260.06058	807.17230	-633.12726	-242.44778	748.87128	-612.61285	-226.05148	702.04822	-338.05499	18.83290	1094.81580	-419.11713	212.53947	1035.39575	-445.51538	-159.70886	1034.82898	-587.67792	193.85291	652.27563	-681.38159	110.30338	591.59613	-632.60822	172.94086	530.35913	-626.41827	54.69691	525.46606	-609.46643	135.71446	347.88510	-464.98483	169.48485	115.35266	-508.62372	76.49603	129.30806	-406.20593	109.60020	101.74869	-628.67035	139.02425	59.15783	-578.55493	96.63988	87.59107	-471.17957	-128.27702	646.23016	-486.14850	-98.45080	499.43283	-488.06967	15.53498	503.26389	-475.09741	-39.85863	301.77408	-353.87152	-50.73436	66.68088	-390.23370	41.81112	107.31313	-302.54019	12.73538	55.82237	-540.20667	-16.36990	43.73290	-476.84280	17.64213	69.50844																																																																																																																															
395	3.283	-592.06567	46.48021	1802.34045	-689.44928	41.47643	1687.78479	-463.12637	39.44755	1706.33899	-642.49182	41.76887	1522.54895	-447.98520	34.82975	1572.56592	-535.98956	154.68784	1473.03259	-560.81854	-70.32542	1477.57397	-488.42975	238.96756	1469.27686	-504.76694	-171.82153	1489.57544	-390.04974	117.10189	1487.84595	-402.07938	-53.21196	1491.71875	-337.92490	122.53207	1403.41846	-426.29514	295.28418	1296.90112	-377.85043	308.32758	1147.99597	-364.63361	216.97267	1131.09839	-463.23782	261.83377	1026.96936	-415.24527	303.02087	928.18170	-483.40063	247.70796	894.82098	-469.30585	286.00922	847.17810	-489.43448	242.91443	859.16345	-524.46094	215.42987	812.56482	-558.52655	217.46855	780.47833	-505.72272	292.76849	774.15308	-519.42023	254.17821	720.64337	-507.77621	207.68300	699.12451	-495.57803	-239.66628	1341.27124	-501.51822	-288.43277	1164.84424	-449.89771	-229.59866	1141.29980	-576.27405	-250.53758	1070.51038	-543.68347	-277.89166	974.26050	-610.55609	-215.20003	935.30377	-618.58771	-248.18153	878.23645	-627.23718	-199.19229	872.16040	-625.10852	-164.66469	822.35736	-639.15515	-168.04146	762.50378	-645.84796	-259.93286	806.85645	-639.09949	-241.95499	748.40186	-619.48059	-224.43398	702.27252	-342.56161	18.81551	1094.36218	-426.77432	211.30098	1034.96533	-450.42050	-160.15015	1034.73828	-592.11115	193.90472	651.77472	-685.29272	109.37125	592.23328	-637.13397	172.04070	529.78186	-632.24219	54.51117	525.87860	-621.80322	135.73566	347.24149	-484.25366	169.94424	110.73544	-526.56219	75.56983	125.06747	-426.29568	111.30038	94.23290	-650.37445	136.26668	60.27042	-597.87750	96.48573	86.69454	-473.35892	-128.11183	646.10114	-488.54419	-98.82319	499.57697	-490.62848	15.41378	503.10324	-476.21466	-41.01602	301.54242	-353.76657	-50.82126	66.93551	-391.05261	40.57934	107.26015	-302.54318	12.77391	56.14620	-540.01111	-16.39635	43.73861	-476.73566	16.78120	70.13959																																																																																																																															
